<svg xml:space="preserve" enable-background="new 0 0 100 100" viewBox="0 0 100 100" y="0px" x="0px" xmlns:xlink="http://www.w3.org/1999/xlink" xmlns="http://www.w3.org/2000/svg" version="1.1" style="fill: rgba(0, 0, 0, 0.6);" width="100" height="100"><defs><symbol viewBox="-1 -1 102 102" id="icon-info" xmlns="http://www.w3.org/2000/svg"><path d="M50 97.5C23.8 97.5 2.5 76.2 2.5 50S23.8 2.5 50 2.5 97.5 23.8 97.5 50 76.2 97.5 50 97.5zm0-89.2C27 8.3 8.3 27 8.3 50S27 91.7 50 91.7 91.7 73 91.7 50 73 8.3 50 8.3z"></path><path d="M49.2 34.9c-1.2 0-2.2-.4-3.1-1.1s-1.3-1.8-1.3-3.1c0-1.2.4-2.2 1.3-3 .9-.8 1.9-1.2 3-1.2s2.1.4 3 1.1 1.3 1.8 1.3 3.1-.4 2.4-1.3 3.1a4 4 0 01-2.9 1.1zm4.3 8.9v24.9c0 1.7-.4 3-1.2 3.9s-1.9 1.3-3.1 1.3c-1.3 0-2.3-.5-3.1-1.4s-1.2-2.2-1.2-3.9V44c0-1.7.4-3 1.2-3.8.8-.9 1.8-1.3 3.1-1.3s2.3.4 3.1 1.3c.8.8 1.2 2 1.2 3.6z"></path></symbol></defs>
								<g fill="#000000" fill-opacity="0.6"><path d="M50 97.5C23.8 97.5 2.5 76.2 2.5 50S23.8 2.5 50 2.5 97.5 23.8 97.5 50 76.2 97.5 50 97.5zm0-89.2C27 8.3 8.3 27 8.3 50S27 91.7 50 91.7 91.7 73 91.7 50 73 8.3 50 8.3z"></path><path d="M49.2 34.9c-1.2 0-2.2-.4-3.1-1.1s-1.3-1.8-1.3-3.1c0-1.2.4-2.2 1.3-3 .9-.8 1.9-1.2 3-1.2s2.1.4 3 1.1 1.3 1.8 1.3 3.1-.4 2.4-1.3 3.1a4 4 0 01-2.9 1.1zm4.3 8.9v24.9c0 1.7-.4 3-1.2 3.9s-1.9 1.3-3.1 1.3c-1.3 0-2.3-.5-3.1-1.4s-1.2-2.2-1.2-3.9V44c0-1.7.4-3 1.2-3.8.8-.9 1.8-1.3 3.1-1.3s2.3.4 3.1 1.3c.8.8 1.2 2 1.2 3.6z"></path></g>
							</svg>