<svg version="1.1" xmlns="http://www.w3.org/2000/svg" xmlns:xlink="http://www.w3.org/1999/xlink" x="0px" y="0px" viewBox="0 0 100 100" enable-background="new 0 0 100 100" xml:space="preserve" width="100" height="100"><defs><symbol viewBox="-1 -1 102 102" id="icon-heart" xmlns="http://www.w3.org/2000/svg"><path d="M4.3 39.4v-5.5c.9-3 1.4-6.2 2.8-9 4.4-8.9 11.6-14.2 22.1-14.2 8.2 0 14.1 4.1 18.9 10.2.6.8 1.2 1.6 1.8 2.5 1.6-2 3-3.9 4.6-5.5 6.1-6.1 13.5-8.7 22.2-6.5 12.4 3.1 19.9 15.4 18.8 28-.8 9.1-4.9 16.9-10.7 23.9-9.3 11.2-21.2 19.2-34 26.1-.4.2-1.3.2-1.8 0-11-5.9-21.3-12.7-29.9-21.6-5.9-6.1-10.8-12.9-13.2-21-.7-2.5-1-5-1.6-7.4z"></path></symbol></defs><g stroke="#999999" fill="#FFFFFF" stroke-width="5px"><path d="M4.3 39.4v-5.5c.9-3 1.4-6.2 2.8-9 4.4-8.9 11.6-14.2 22.1-14.2 8.2 0 14.1 4.1 18.9 10.2.6.8 1.2 1.6 1.8 2.5 1.6-2 3-3.9 4.6-5.5 6.1-6.1 13.5-8.7 22.2-6.5 12.4 3.1 19.9 15.4 18.8 28-.8 9.1-4.9 16.9-10.7 23.9-9.3 11.2-21.2 19.2-34 26.1-.4.2-1.3.2-1.8 0-11-5.9-21.3-12.7-29.9-21.6-5.9-6.1-10.8-12.9-13.2-21-.7-2.5-1-5-1.6-7.4z"></path></g></svg>